<?xml version="1.0" encoding="utf-8" standalone="no"?>
<!DOCTYPE svg PUBLIC "-//W3C//DTD SVG 1.1//EN"
  "http://www.w3.org/Graphics/SVG/1.1/DTD/svg11.dtd">
<svg xmlns:xlink="http://www.w3.org/1999/xlink" width="996.48pt" height="420.48pt" viewBox="0 0 996.48 420.48" xmlns="http://www.w3.org/2000/svg" version="1.1">
 <metadata>
  <rdf:RDF xmlns:dc="http://purl.org/dc/elements/1.1/" xmlns:cc="http://creativecommons.org/ns#" xmlns:rdf="http://www.w3.org/1999/02/22-rdf-syntax-ns#">
   <cc:Work>
    <dc:type rdf:resource="http://purl.org/dc/dcmitype/StillImage"/>
    <dc:date>2026-05-11T19:57:51.192178</dc:date>
    <dc:format>image/svg+xml</dc:format>
    <dc:creator>
     <cc:Agent>
      <dc:title>Matplotlib v3.10.8, https://matplotlib.org/</dc:title>
     </cc:Agent>
    </dc:creator>
   </cc:Work>
  </rdf:RDF>
 </metadata>
 <defs>
  <style type="text/css">*{stroke-linejoin: round; stroke-linecap: butt}</style>
 </defs>
 <g id="figure_1">
  <g id="patch_1">
   <path d="M 0 420.48 
L 996.48 420.48 
L 996.48 0 
L 0 0 
z
" style="fill: #ffffff"/>
  </g>
  <g id="axes_1">
   <g id="patch_2">
    <path d="M 26.8416 157.4496 
L 183.9744 157.4496 
Q 203.616 157.4496 203.616 149.328 
L 203.616 108.72 
Q 203.616 100.5984 183.9744 100.5984 
L 26.8416 100.5984 
Q 7.2 100.5984 7.2 108.72 
L 7.2 149.328 
Q 7.2 157.4496 26.8416 157.4496 
z
" clip-path="url(#p5e90193a0f)" style="fill: #dbeafe; stroke: #1d4ed8; stroke-width: 1.7; stroke-linejoin: miter"/>
   </g>
   <g id="patch_3">
    <path d="M 203.616 157.4496 
L 360.7488 157.4496 
Q 380.3904 157.4496 380.3904 149.328 
L 380.3904 108.72 
Q 380.3904 100.5984 360.7488 100.5984 
L 203.616 100.5984 
Q 183.9744 100.5984 183.9744 108.72 
L 183.9744 149.328 
Q 183.9744 157.4496 203.616 157.4496 
z
" clip-path="url(#p5e90193a0f)" style="fill: #e0f2fe; stroke: #0369a1; stroke-width: 1.7; stroke-linejoin: miter"/>
   </g>
   <g id="patch_4">
    <path d="M 380.3904 157.4496 
L 537.5232 157.4496 
Q 557.1648 157.4496 557.1648 149.328 
L 557.1648 108.72 
Q 557.1648 100.5984 537.5232 100.5984 
L 380.3904 100.5984 
Q 360.7488 100.5984 360.7488 108.72 
L 360.7488 149.328 
Q 360.7488 157.4496 380.3904 157.4496 
z
" clip-path="url(#p5e90193a0f)" style="fill: #fef3c7; stroke: #b45309; stroke-width: 1.7; stroke-linejoin: miter"/>
   </g>
   <g id="patch_5">
    <path d="M 557.1648 157.4496 
L 714.2976 157.4496 
Q 733.9392 157.4496 733.9392 149.328 
L 733.9392 108.72 
Q 733.9392 100.5984 714.2976 100.5984 
L 557.1648 100.5984 
Q 537.5232 100.5984 537.5232 108.72 
L 537.5232 149.328 
Q 537.5232 157.4496 557.1648 157.4496 
z
" clip-path="url(#p5e90193a0f)" style="fill: #fee2e2; stroke: #b91c1c; stroke-width: 1.7; stroke-linejoin: miter"/>
   </g>
   <g id="patch_6">
    <path d="M 733.9392 157.4496 
L 891.072 157.4496 
Q 910.7136 157.4496 910.7136 149.328 
L 910.7136 108.72 
Q 910.7136 100.5984 891.072 100.5984 
L 733.9392 100.5984 
Q 714.2976 100.5984 714.2976 108.72 
L 714.2976 149.328 
Q 714.2976 157.4496 733.9392 157.4496 
z
" clip-path="url(#p5e90193a0f)" style="fill: #ede9fe; stroke: #6d28d9; stroke-width: 1.7; stroke-linejoin: miter"/>
   </g>
   <g id="patch_7">
    <path d="M 557.1648 299.5776 
L 714.2976 299.5776 
Q 733.9392 299.5776 733.9392 291.456 
L 733.9392 250.848 
Q 733.9392 242.7264 714.2976 242.7264 
L 557.1648 242.7264 
Q 537.5232 242.7264 537.5232 250.848 
L 537.5232 291.456 
Q 537.5232 299.5776 557.1648 299.5776 
z
" clip-path="url(#p5e90193a0f)" style="fill: #dcfce7; stroke: #15803d; stroke-width: 1.7; stroke-linejoin: miter"/>
   </g>
   <g id="patch_8">
    <path d="M 176.153245 129.024 
Q 193.796031 129.024 209.649962 129.024 
" clip-path="url(#p5e90193a0f)" style="fill: none; stroke: #475569; stroke-width: 1.6; stroke-linecap: round"/>
    <path d="M 204.049962 126.224 
L 209.649962 129.024 
L 204.049962 131.824 
z
" clip-path="url(#p5e90193a0f)" style="fill: #475569; stroke: #475569; stroke-width: 1.6; stroke-linecap: round"/>
   </g>
   <g id="patch_9">
    <path d="M 352.927645 129.024 
Q 370.570431 129.024 386.424362 129.024 
" clip-path="url(#p5e90193a0f)" style="fill: none; stroke: #475569; stroke-width: 1.6; stroke-linecap: round"/>
    <path d="M 380.824362 126.224 
L 386.424362 129.024 
L 380.824362 131.824 
z
" clip-path="url(#p5e90193a0f)" style="fill: #475569; stroke: #475569; stroke-width: 1.6; stroke-linecap: round"/>
   </g>
   <g id="patch_10">
    <path d="M 529.702045 129.024 
Q 547.344831 129.024 563.198762 129.024 
" clip-path="url(#p5e90193a0f)" style="fill: none; stroke: #475569; stroke-width: 1.6; stroke-linecap: round"/>
    <path d="M 557.598762 126.224 
L 563.198762 129.024 
L 557.598762 131.824 
z
" clip-path="url(#p5e90193a0f)" style="fill: #475569; stroke: #475569; stroke-width: 1.6; stroke-linecap: round"/>
   </g>
   <g id="patch_11">
    <path d="M 706.476445 129.024 
Q 724.119231 129.024 739.973162 129.024 
" clip-path="url(#p5e90193a0f)" style="fill: none; stroke: #475569; stroke-width: 1.6; stroke-linecap: round"/>
    <path d="M 734.373162 126.224 
L 739.973162 129.024 
L 734.373162 131.824 
z
" clip-path="url(#p5e90193a0f)" style="fill: #475569; stroke: #475569; stroke-width: 1.6; stroke-linecap: round"/>
   </g>
   <g id="patch_12">
    <path d="M 635.7312 163.511801 
Q 635.7312 200.086436 635.7312 234.872216 
" clip-path="url(#p5e90193a0f)" style="fill: none; stroke: #475569; stroke-width: 1.6; stroke-linecap: round"/>
    <path d="M 638.5312 229.272216 
L 635.7312 234.872216 
L 632.9312 229.272216 
z
" clip-path="url(#p5e90193a0f)" style="fill: #475569; stroke: #475569; stroke-width: 1.6; stroke-linecap: round"/>
   </g>
   <g id="text_1">
    <!-- End-to-End Pipeline Diagram - Corrected -->
    <g style="fill: #0f172a" transform="translate(343.11875 31.644) scale(0.16 -0.16)">
     <defs>
      <path id="Arial-BoldMT-45" d="M 466 0 
L 466 4581 
L 3863 4581 
L 3863 3806 
L 1391 3806 
L 1391 2791 
L 3691 2791 
L 3691 2019 
L 1391 2019 
L 1391 772 
L 3950 772 
L 3950 0 
L 466 0 
z
" transform="scale(0.015625)"/>
      <path id="Arial-BoldMT-6e" d="M 3478 0 
L 2600 0 
L 2600 1694 
Q 2600 2231 2544 2389 
Q 2488 2547 2361 2634 
Q 2234 2722 2056 2722 
Q 1828 2722 1647 2597 
Q 1466 2472 1398 2265 
Q 1331 2059 1331 1503 
L 1331 0 
L 453 0 
L 453 3319 
L 1269 3319 
L 1269 2831 
Q 1703 3394 2363 3394 
Q 2653 3394 2893 3289 
Q 3134 3184 3257 3021 
Q 3381 2859 3429 2653 
Q 3478 2447 3478 2063 
L 3478 0 
z
" transform="scale(0.015625)"/>
      <path id="Arial-BoldMT-64" d="M 3503 0 
L 2688 0 
L 2688 488 
Q 2484 203 2207 64 
Q 1931 -75 1650 -75 
Q 1078 -75 670 386 
Q 263 847 263 1672 
Q 263 2516 659 2955 
Q 1056 3394 1663 3394 
Q 2219 3394 2625 2931 
L 2625 4581 
L 3503 4581 
L 3503 0 
z
M 1159 1731 
Q 1159 1200 1306 963 
Q 1519 619 1900 619 
Q 2203 619 2415 876 
Q 2628 1134 2628 1647 
Q 2628 2219 2422 2470 
Q 2216 2722 1894 2722 
Q 1581 2722 1370 2473 
Q 1159 2225 1159 1731 
z
" transform="scale(0.015625)"/>
      <path id="Arial-BoldMT-2d" d="M 359 1222 
L 359 2100 
L 2084 2100 
L 2084 1222 
L 359 1222 
z
" transform="scale(0.015625)"/>
      <path id="Arial-BoldMT-74" d="M 1981 3319 
L 1981 2619 
L 1381 2619 
L 1381 1281 
Q 1381 875 1398 808 
Q 1416 741 1477 697 
Q 1538 653 1625 653 
Q 1747 653 1978 738 
L 2053 56 
Q 1747 -75 1359 -75 
Q 1122 -75 931 4 
Q 741 84 652 211 
Q 563 338 528 553 
Q 500 706 500 1172 
L 500 2619 
L 97 2619 
L 97 3319 
L 500 3319 
L 500 3978 
L 1381 4491 
L 1381 3319 
L 1981 3319 
z
" transform="scale(0.015625)"/>
      <path id="Arial-BoldMT-6f" d="M 256 1706 
Q 256 2144 472 2553 
Q 688 2963 1083 3178 
Q 1478 3394 1966 3394 
Q 2719 3394 3200 2905 
Q 3681 2416 3681 1669 
Q 3681 916 3195 420 
Q 2709 -75 1972 -75 
Q 1516 -75 1102 131 
Q 688 338 472 736 
Q 256 1134 256 1706 
z
M 1156 1659 
Q 1156 1166 1390 903 
Q 1625 641 1969 641 
Q 2313 641 2545 903 
Q 2778 1166 2778 1666 
Q 2778 2153 2545 2415 
Q 2313 2678 1969 2678 
Q 1625 2678 1390 2415 
Q 1156 2153 1156 1659 
z
" transform="scale(0.015625)"/>
      <path id="Arial-BoldMT-20" transform="scale(0.015625)"/>
      <path id="Arial-BoldMT-50" d="M 466 0 
L 466 4581 
L 1950 4581 
Q 2794 4581 3050 4513 
Q 3444 4409 3709 4064 
Q 3975 3719 3975 3172 
Q 3975 2750 3822 2462 
Q 3669 2175 3433 2011 
Q 3197 1847 2953 1794 
Q 2622 1728 1994 1728 
L 1391 1728 
L 1391 0 
L 466 0 
z
M 1391 3806 
L 1391 2506 
L 1897 2506 
Q 2444 2506 2628 2578 
Q 2813 2650 2917 2803 
Q 3022 2956 3022 3159 
Q 3022 3409 2875 3571 
Q 2728 3734 2503 3775 
Q 2338 3806 1838 3806 
L 1391 3806 
z
" transform="scale(0.015625)"/>
      <path id="Arial-BoldMT-69" d="M 459 3769 
L 459 4581 
L 1338 4581 
L 1338 3769 
L 459 3769 
z
M 459 0 
L 459 3319 
L 1338 3319 
L 1338 0 
L 459 0 
z
" transform="scale(0.015625)"/>
      <path id="Arial-BoldMT-70" d="M 434 3319 
L 1253 3319 
L 1253 2831 
Q 1413 3081 1684 3237 
Q 1956 3394 2288 3394 
Q 2866 3394 3269 2941 
Q 3672 2488 3672 1678 
Q 3672 847 3265 386 
Q 2859 -75 2281 -75 
Q 2006 -75 1782 34 
Q 1559 144 1313 409 
L 1313 -1263 
L 434 -1263 
L 434 3319 
z
M 1303 1716 
Q 1303 1156 1525 889 
Q 1747 622 2066 622 
Q 2372 622 2575 867 
Q 2778 1113 2778 1672 
Q 2778 2194 2568 2447 
Q 2359 2700 2050 2700 
Q 1728 2700 1515 2451 
Q 1303 2203 1303 1716 
z
" transform="scale(0.015625)"/>
      <path id="Arial-BoldMT-65" d="M 2381 1056 
L 3256 909 
Q 3088 428 2723 176 
Q 2359 -75 1813 -75 
Q 947 -75 531 491 
Q 203 944 203 1634 
Q 203 2459 634 2926 
Q 1066 3394 1725 3394 
Q 2466 3394 2894 2905 
Q 3322 2416 3303 1406 
L 1103 1406 
Q 1113 1016 1316 798 
Q 1519 581 1822 581 
Q 2028 581 2168 693 
Q 2309 806 2381 1056 
z
M 2431 1944 
Q 2422 2325 2234 2523 
Q 2047 2722 1778 2722 
Q 1491 2722 1303 2513 
Q 1116 2303 1119 1944 
L 2431 1944 
z
" transform="scale(0.015625)"/>
      <path id="Arial-BoldMT-6c" d="M 459 0 
L 459 4581 
L 1338 4581 
L 1338 0 
L 459 0 
z
" transform="scale(0.015625)"/>
      <path id="Arial-BoldMT-44" d="M 463 4581 
L 2153 4581 
Q 2725 4581 3025 4494 
Q 3428 4375 3715 4072 
Q 4003 3769 4153 3330 
Q 4303 2891 4303 2247 
Q 4303 1681 4163 1272 
Q 3991 772 3672 463 
Q 3431 228 3022 97 
Q 2716 0 2203 0 
L 463 0 
L 463 4581 
z
M 1388 3806 
L 1388 772 
L 2078 772 
Q 2466 772 2638 816 
Q 2863 872 3011 1006 
Q 3159 1141 3253 1448 
Q 3347 1756 3347 2288 
Q 3347 2819 3253 3103 
Q 3159 3388 2990 3547 
Q 2822 3706 2563 3763 
Q 2369 3806 1803 3806 
L 1388 3806 
z
" transform="scale(0.015625)"/>
      <path id="Arial-BoldMT-61" d="M 1116 2306 
L 319 2450 
Q 453 2931 781 3162 
Q 1109 3394 1756 3394 
Q 2344 3394 2631 3255 
Q 2919 3116 3036 2902 
Q 3153 2688 3153 2116 
L 3144 1091 
Q 3144 653 3186 445 
Q 3228 238 3344 0 
L 2475 0 
Q 2441 88 2391 259 
Q 2369 338 2359 363 
Q 2134 144 1878 34 
Q 1622 -75 1331 -75 
Q 819 -75 523 203 
Q 228 481 228 906 
Q 228 1188 362 1408 
Q 497 1628 739 1745 
Q 981 1863 1438 1950 
Q 2053 2066 2291 2166 
L 2291 2253 
Q 2291 2506 2166 2614 
Q 2041 2722 1694 2722 
Q 1459 2722 1328 2630 
Q 1197 2538 1116 2306 
z
M 2291 1594 
Q 2122 1538 1756 1459 
Q 1391 1381 1278 1306 
Q 1106 1184 1106 997 
Q 1106 813 1243 678 
Q 1381 544 1594 544 
Q 1831 544 2047 700 
Q 2206 819 2256 991 
Q 2291 1103 2291 1419 
L 2291 1594 
z
" transform="scale(0.015625)"/>
      <path id="Arial-BoldMT-67" d="M 378 -219 
L 1381 -341 
Q 1406 -516 1497 -581 
Q 1622 -675 1891 -675 
Q 2234 -675 2406 -572 
Q 2522 -503 2581 -350 
Q 2622 -241 2622 53 
L 2622 538 
Q 2228 0 1628 0 
Q 959 0 569 566 
Q 263 1013 263 1678 
Q 263 2513 664 2953 
Q 1066 3394 1663 3394 
Q 2278 3394 2678 2853 
L 2678 3319 
L 3500 3319 
L 3500 341 
Q 3500 -247 3403 -537 
Q 3306 -828 3131 -993 
Q 2956 -1159 2664 -1253 
Q 2372 -1347 1925 -1347 
Q 1081 -1347 728 -1058 
Q 375 -769 375 -325 
Q 375 -281 378 -219 
z
M 1163 1728 
Q 1163 1200 1367 954 
Q 1572 709 1872 709 
Q 2194 709 2416 961 
Q 2638 1213 2638 1706 
Q 2638 2222 2425 2472 
Q 2213 2722 1888 2722 
Q 1572 2722 1367 2476 
Q 1163 2231 1163 1728 
z
" transform="scale(0.015625)"/>
      <path id="Arial-BoldMT-72" d="M 1300 0 
L 422 0 
L 422 3319 
L 1238 3319 
L 1238 2847 
Q 1447 3181 1614 3287 
Q 1781 3394 1994 3394 
Q 2294 3394 2572 3228 
L 2300 2463 
Q 2078 2606 1888 2606 
Q 1703 2606 1575 2504 
Q 1447 2403 1373 2137 
Q 1300 1872 1300 1025 
L 1300 0 
z
" transform="scale(0.015625)"/>
      <path id="Arial-BoldMT-6d" d="M 394 3319 
L 1203 3319 
L 1203 2866 
Q 1638 3394 2238 3394 
Q 2556 3394 2790 3262 
Q 3025 3131 3175 2866 
Q 3394 3131 3647 3262 
Q 3900 3394 4188 3394 
Q 4553 3394 4806 3245 
Q 5059 3097 5184 2809 
Q 5275 2597 5275 2122 
L 5275 0 
L 4397 0 
L 4397 1897 
Q 4397 2391 4306 2534 
Q 4184 2722 3931 2722 
Q 3747 2722 3584 2609 
Q 3422 2497 3350 2280 
Q 3278 2063 3278 1594 
L 3278 0 
L 2400 0 
L 2400 1819 
Q 2400 2303 2353 2443 
Q 2306 2584 2207 2653 
Q 2109 2722 1941 2722 
Q 1738 2722 1575 2612 
Q 1413 2503 1342 2297 
Q 1272 2091 1272 1613 
L 1272 0 
L 394 0 
L 394 3319 
z
" transform="scale(0.015625)"/>
      <path id="Arial-BoldMT-43" d="M 3397 1684 
L 4294 1400 
Q 4088 650 3608 286 
Q 3128 -78 2391 -78 
Q 1478 -78 890 545 
Q 303 1169 303 2250 
Q 303 3394 893 4026 
Q 1484 4659 2447 4659 
Q 3288 4659 3813 4163 
Q 4125 3869 4281 3319 
L 3366 3100 
Q 3284 3456 3026 3662 
Q 2769 3869 2400 3869 
Q 1891 3869 1573 3503 
Q 1256 3138 1256 2319 
Q 1256 1450 1568 1081 
Q 1881 713 2381 713 
Q 2750 713 3015 947 
Q 3281 1181 3397 1684 
z
" transform="scale(0.015625)"/>
      <path id="Arial-BoldMT-63" d="M 3353 2338 
L 2488 2181 
Q 2444 2441 2289 2572 
Q 2134 2703 1888 2703 
Q 1559 2703 1364 2476 
Q 1169 2250 1169 1719 
Q 1169 1128 1367 884 
Q 1566 641 1900 641 
Q 2150 641 2309 783 
Q 2469 925 2534 1272 
L 3397 1125 
Q 3263 531 2881 228 
Q 2500 -75 1859 -75 
Q 1131 -75 698 384 
Q 266 844 266 1656 
Q 266 2478 700 2936 
Q 1134 3394 1875 3394 
Q 2481 3394 2839 3133 
Q 3197 2872 3353 2338 
z
" transform="scale(0.015625)"/>
     </defs>
     <use xlink:href="#Arial-BoldMT-45"/>
     <use xlink:href="#Arial-BoldMT-6e" transform="translate(66.699219 0)"/>
     <use xlink:href="#Arial-BoldMT-64" transform="translate(127.783203 0)"/>
     <use xlink:href="#Arial-BoldMT-2d" transform="translate(188.867188 0)"/>
     <use xlink:href="#Arial-BoldMT-74" transform="translate(222.167969 0)"/>
     <use xlink:href="#Arial-BoldMT-6f" transform="translate(255.46875 0)"/>
     <use xlink:href="#Arial-BoldMT-2d" transform="translate(316.552734 0)"/>
     <use xlink:href="#Arial-BoldMT-45" transform="translate(349.853516 0)"/>
     <use xlink:href="#Arial-BoldMT-6e" transform="translate(416.552734 0)"/>
     <use xlink:href="#Arial-BoldMT-64" transform="translate(477.636719 0)"/>
     <use xlink:href="#Arial-BoldMT-20" transform="translate(538.720703 0)"/>
     <use xlink:href="#Arial-BoldMT-50" transform="translate(566.503906 0)"/>
     <use xlink:href="#Arial-BoldMT-69" transform="translate(633.203125 0)"/>
     <use xlink:href="#Arial-BoldMT-70" transform="translate(660.986328 0)"/>
     <use xlink:href="#Arial-BoldMT-65" transform="translate(722.070312 0)"/>
     <use xlink:href="#Arial-BoldMT-6c" transform="translate(777.685547 0)"/>
     <use xlink:href="#Arial-BoldMT-69" transform="translate(805.46875 0)"/>
     <use xlink:href="#Arial-BoldMT-6e" transform="translate(833.251953 0)"/>
     <use xlink:href="#Arial-BoldMT-65" transform="translate(894.335938 0)"/>
     <use xlink:href="#Arial-BoldMT-20" transform="translate(949.951172 0)"/>
     <use xlink:href="#Arial-BoldMT-44" transform="translate(977.734375 0)"/>
     <use xlink:href="#Arial-BoldMT-69" transform="translate(1049.951172 0)"/>
     <use xlink:href="#Arial-BoldMT-61" transform="translate(1077.734375 0)"/>
     <use xlink:href="#Arial-BoldMT-67" transform="translate(1133.349609 0)"/>
     <use xlink:href="#Arial-BoldMT-72" transform="translate(1194.433594 0)"/>
     <use xlink:href="#Arial-BoldMT-61" transform="translate(1233.349609 0)"/>
     <use xlink:href="#Arial-BoldMT-6d" transform="translate(1288.964844 0)"/>
     <use xlink:href="#Arial-BoldMT-20" transform="translate(1377.880859 0)"/>
     <use xlink:href="#Arial-BoldMT-2d" transform="translate(1405.664062 0)"/>
     <use xlink:href="#Arial-BoldMT-20" transform="translate(1438.964844 0)"/>
     <use xlink:href="#Arial-BoldMT-43" transform="translate(1466.748047 0)"/>
     <use xlink:href="#Arial-BoldMT-6f" transform="translate(1538.964844 0)"/>
     <use xlink:href="#Arial-BoldMT-72" transform="translate(1600.048828 0)"/>
     <use xlink:href="#Arial-BoldMT-72" transform="translate(1638.964844 0)"/>
     <use xlink:href="#Arial-BoldMT-65" transform="translate(1677.880859 0)"/>
     <use xlink:href="#Arial-BoldMT-63" transform="translate(1733.496094 0)"/>
     <use xlink:href="#Arial-BoldMT-74" transform="translate(1789.111328 0)"/>
     <use xlink:href="#Arial-BoldMT-65" transform="translate(1822.412109 0)"/>
     <use xlink:href="#Arial-BoldMT-64" transform="translate(1878.027344 0)"/>
    </g>
   </g>
   <g id="text_2">
    <!-- Raw Data -->
    <g style="fill: #0f172a" transform="translate(85.152375 131.356969) scale(0.09 -0.09)">
     <defs>
      <path id="Arial-BoldMT-52" d="M 469 0 
L 469 4581 
L 2416 4581 
Q 3150 4581 3483 4457 
Q 3816 4334 4016 4018 
Q 4216 3703 4216 3297 
Q 4216 2781 3912 2445 
Q 3609 2109 3006 2022 
Q 3306 1847 3501 1637 
Q 3697 1428 4028 894 
L 4588 0 
L 3481 0 
L 2813 997 
Q 2456 1531 2325 1670 
Q 2194 1809 2047 1861 
Q 1900 1913 1581 1913 
L 1394 1913 
L 1394 0 
L 469 0 
z
M 1394 2644 
L 2078 2644 
Q 2744 2644 2909 2700 
Q 3075 2756 3169 2893 
Q 3263 3031 3263 3238 
Q 3263 3469 3139 3611 
Q 3016 3753 2791 3791 
Q 2678 3806 2116 3806 
L 1394 3806 
L 1394 2644 
z
" transform="scale(0.015625)"/>
      <path id="Arial-BoldMT-77" d="M 1078 0 
L 28 3319 
L 881 3319 
L 1503 1144 
L 2075 3319 
L 2922 3319 
L 3475 1144 
L 4109 3319 
L 4975 3319 
L 3909 0 
L 3066 0 
L 2494 2134 
L 1931 0 
L 1078 0 
z
" transform="scale(0.015625)"/>
     </defs>
     <use xlink:href="#Arial-BoldMT-52"/>
     <use xlink:href="#Arial-BoldMT-61" transform="translate(72.216797 0)"/>
     <use xlink:href="#Arial-BoldMT-77" transform="translate(127.832031 0)"/>
     <use xlink:href="#Arial-BoldMT-20" transform="translate(205.615234 0)"/>
     <use xlink:href="#Arial-BoldMT-44" transform="translate(233.398438 0)"/>
     <use xlink:href="#Arial-BoldMT-61" transform="translate(305.615234 0)"/>
     <use xlink:href="#Arial-BoldMT-74" transform="translate(361.230469 0)"/>
     <use xlink:href="#Arial-BoldMT-61" transform="translate(394.53125 0)"/>
    </g>
   </g>
   <g id="text_3">
    <!-- Preprocess -->
    <g style="fill: #0f172a" transform="translate(257.66865 131.356969) scale(0.09 -0.09)">
     <defs>
      <path id="Arial-BoldMT-73" d="M 150 947 
L 1031 1081 
Q 1088 825 1259 692 
Q 1431 559 1741 559 
Q 2081 559 2253 684 
Q 2369 772 2369 919 
Q 2369 1019 2306 1084 
Q 2241 1147 2013 1200 
Q 950 1434 666 1628 
Q 272 1897 272 2375 
Q 272 2806 612 3100 
Q 953 3394 1669 3394 
Q 2350 3394 2681 3172 
Q 3013 2950 3138 2516 
L 2309 2363 
Q 2256 2556 2107 2659 
Q 1959 2763 1684 2763 
Q 1338 2763 1188 2666 
Q 1088 2597 1088 2488 
Q 1088 2394 1175 2328 
Q 1294 2241 1995 2081 
Q 2697 1922 2975 1691 
Q 3250 1456 3250 1038 
Q 3250 581 2869 253 
Q 2488 -75 1741 -75 
Q 1063 -75 667 200 
Q 272 475 150 947 
z
" transform="scale(0.015625)"/>
     </defs>
     <use xlink:href="#Arial-BoldMT-50"/>
     <use xlink:href="#Arial-BoldMT-72" transform="translate(66.699219 0)"/>
     <use xlink:href="#Arial-BoldMT-65" transform="translate(105.615234 0)"/>
     <use xlink:href="#Arial-BoldMT-70" transform="translate(161.230469 0)"/>
     <use xlink:href="#Arial-BoldMT-72" transform="translate(222.314453 0)"/>
     <use xlink:href="#Arial-BoldMT-6f" transform="translate(261.230469 0)"/>
     <use xlink:href="#Arial-BoldMT-63" transform="translate(322.314453 0)"/>
     <use xlink:href="#Arial-BoldMT-65" transform="translate(377.929688 0)"/>
     <use xlink:href="#Arial-BoldMT-73" transform="translate(433.544922 0)"/>
     <use xlink:href="#Arial-BoldMT-73" transform="translate(489.160156 0)"/>
    </g>
   </g>
   <g id="text_4">
    <!-- Train + -->
    <g style="fill: #0f172a" transform="translate(444.324769 126.603703) scale(0.09 -0.09)">
     <defs>
      <path id="Arial-BoldMT-54" d="M 1497 0 
L 1497 3806 
L 138 3806 
L 138 4581 
L 3778 4581 
L 3778 3806 
L 2422 3806 
L 2422 0 
L 1497 0 
z
" transform="scale(0.015625)"/>
      <path id="Arial-BoldMT-2b" d="M 1466 659 
L 1466 1850 
L 266 1850 
L 266 2672 
L 1466 2672 
L 1466 3863 
L 2266 3863 
L 2266 2672 
L 3469 2672 
L 3469 1850 
L 2266 1850 
L 2266 659 
L 1466 659 
z
" transform="scale(0.015625)"/>
     </defs>
     <use xlink:href="#Arial-BoldMT-54"/>
     <use xlink:href="#Arial-BoldMT-72" transform="translate(55.583984 0)"/>
     <use xlink:href="#Arial-BoldMT-61" transform="translate(94.5 0)"/>
     <use xlink:href="#Arial-BoldMT-69" transform="translate(150.115234 0)"/>
     <use xlink:href="#Arial-BoldMT-6e" transform="translate(177.898438 0)"/>
     <use xlink:href="#Arial-BoldMT-20" transform="translate(238.982422 0)"/>
     <use xlink:href="#Arial-BoldMT-2b" transform="translate(266.765625 0)"/>
    </g>
    <!-- Select Features -->
    <g style="fill: #0f172a" transform="translate(425.692659 136.110234) scale(0.09 -0.09)">
     <defs>
      <path id="Arial-BoldMT-53" d="M 231 1491 
L 1131 1578 
Q 1213 1125 1461 912 
Q 1709 700 2131 700 
Q 2578 700 2804 889 
Q 3031 1078 3031 1331 
Q 3031 1494 2936 1608 
Q 2841 1722 2603 1806 
Q 2441 1863 1863 2006 
Q 1119 2191 819 2459 
Q 397 2838 397 3381 
Q 397 3731 595 4036 
Q 794 4341 1167 4500 
Q 1541 4659 2069 4659 
Q 2931 4659 3367 4281 
Q 3803 3903 3825 3272 
L 2900 3231 
Q 2841 3584 2645 3739 
Q 2450 3894 2059 3894 
Q 1656 3894 1428 3728 
Q 1281 3622 1281 3444 
Q 1281 3281 1419 3166 
Q 1594 3019 2269 2859 
Q 2944 2700 3267 2529 
Q 3591 2359 3773 2064 
Q 3956 1769 3956 1334 
Q 3956 941 3737 597 
Q 3519 253 3119 86 
Q 2719 -81 2122 -81 
Q 1253 -81 787 320 
Q 322 722 231 1491 
z
" transform="scale(0.015625)"/>
      <path id="Arial-BoldMT-46" d="M 472 0 
L 472 4581 
L 3613 4581 
L 3613 3806 
L 1397 3806 
L 1397 2722 
L 3309 2722 
L 3309 1947 
L 1397 1947 
L 1397 0 
L 472 0 
z
" transform="scale(0.015625)"/>
      <path id="Arial-BoldMT-75" d="M 2644 0 
L 2644 497 
Q 2463 231 2167 78 
Q 1872 -75 1544 -75 
Q 1209 -75 943 72 
Q 678 219 559 484 
Q 441 750 441 1219 
L 441 3319 
L 1319 3319 
L 1319 1794 
Q 1319 1094 1367 936 
Q 1416 778 1544 686 
Q 1672 594 1869 594 
Q 2094 594 2272 717 
Q 2450 841 2515 1023 
Q 2581 1206 2581 1919 
L 2581 3319 
L 3459 3319 
L 3459 0 
L 2644 0 
z
" transform="scale(0.015625)"/>
     </defs>
     <use xlink:href="#Arial-BoldMT-53"/>
     <use xlink:href="#Arial-BoldMT-65" transform="translate(66.699219 0)"/>
     <use xlink:href="#Arial-BoldMT-6c" transform="translate(122.314453 0)"/>
     <use xlink:href="#Arial-BoldMT-65" transform="translate(150.097656 0)"/>
     <use xlink:href="#Arial-BoldMT-63" transform="translate(205.712891 0)"/>
     <use xlink:href="#Arial-BoldMT-74" transform="translate(261.328125 0)"/>
     <use xlink:href="#Arial-BoldMT-20" transform="translate(294.628906 0)"/>
     <use xlink:href="#Arial-BoldMT-46" transform="translate(322.412109 0)"/>
     <use xlink:href="#Arial-BoldMT-65" transform="translate(383.496094 0)"/>
     <use xlink:href="#Arial-BoldMT-61" transform="translate(439.111328 0)"/>
     <use xlink:href="#Arial-BoldMT-74" transform="translate(494.726562 0)"/>
     <use xlink:href="#Arial-BoldMT-75" transform="translate(528.027344 0)"/>
     <use xlink:href="#Arial-BoldMT-72" transform="translate(589.111328 0)"/>
     <use xlink:href="#Arial-BoldMT-65" transform="translate(628.027344 0)"/>
     <use xlink:href="#Arial-BoldMT-73" transform="translate(683.642578 0)"/>
    </g>
   </g>
   <g id="text_5">
    <!-- Evaluate -->
    <g style="fill: #0f172a" transform="translate(617.222841 131.356969) scale(0.09 -0.09)">
     <defs>
      <path id="Arial-BoldMT-76" d="M 1372 0 
L 34 3319 
L 956 3319 
L 1581 1625 
L 1763 1059 
Q 1834 1275 1853 1344 
Q 1897 1484 1947 1625 
L 2578 3319 
L 3481 3319 
L 2163 0 
L 1372 0 
z
" transform="scale(0.015625)"/>
     </defs>
     <use xlink:href="#Arial-BoldMT-45"/>
     <use xlink:href="#Arial-BoldMT-76" transform="translate(66.699219 0)"/>
     <use xlink:href="#Arial-BoldMT-61" transform="translate(122.314453 0)"/>
     <use xlink:href="#Arial-BoldMT-6c" transform="translate(177.929688 0)"/>
     <use xlink:href="#Arial-BoldMT-75" transform="translate(205.712891 0)"/>
     <use xlink:href="#Arial-BoldMT-61" transform="translate(266.796875 0)"/>
     <use xlink:href="#Arial-BoldMT-74" transform="translate(322.412109 0)"/>
     <use xlink:href="#Arial-BoldMT-65" transform="translate(355.712891 0)"/>
    </g>
   </g>
   <g id="text_6">
    <!-- Deploy -->
    <g style="fill: #0f172a" transform="translate(797.503725 131.297906) scale(0.09 -0.09)">
     <defs>
      <path id="Arial-BoldMT-79" d="M 44 3319 
L 978 3319 
L 1772 963 
L 2547 3319 
L 3456 3319 
L 2284 125 
L 2075 -453 
Q 1959 -744 1854 -897 
Q 1750 -1050 1614 -1145 
Q 1478 -1241 1279 -1294 
Q 1081 -1347 831 -1347 
Q 578 -1347 334 -1294 
L 256 -606 
Q 463 -647 628 -647 
Q 934 -647 1081 -467 
Q 1228 -288 1306 -9 
L 44 3319 
z
" transform="scale(0.015625)"/>
     </defs>
     <use xlink:href="#Arial-BoldMT-44"/>
     <use xlink:href="#Arial-BoldMT-65" transform="translate(72.216797 0)"/>
     <use xlink:href="#Arial-BoldMT-70" transform="translate(127.832031 0)"/>
     <use xlink:href="#Arial-BoldMT-6c" transform="translate(188.916016 0)"/>
     <use xlink:href="#Arial-BoldMT-6f" transform="translate(216.699219 0)"/>
     <use xlink:href="#Arial-BoldMT-79" transform="translate(277.783203 0)"/>
    </g>
   </g>
   <g id="text_7">
    <!-- Charts + -->
    <g style="fill: #0f172a" transform="translate(617.599716 268.672641) scale(0.09 -0.09)">
     <defs>
      <path id="Arial-BoldMT-68" d="M 1334 4581 
L 1334 2897 
Q 1759 3394 2350 3394 
Q 2653 3394 2897 3281 
Q 3141 3169 3264 2994 
Q 3388 2819 3433 2606 
Q 3478 2394 3478 1947 
L 3478 0 
L 2600 0 
L 2600 1753 
Q 2600 2275 2550 2415 
Q 2500 2556 2373 2639 
Q 2247 2722 2056 2722 
Q 1838 2722 1666 2615 
Q 1494 2509 1414 2295 
Q 1334 2081 1334 1663 
L 1334 0 
L 456 0 
L 456 4581 
L 1334 4581 
z
" transform="scale(0.015625)"/>
     </defs>
     <use xlink:href="#Arial-BoldMT-43"/>
     <use xlink:href="#Arial-BoldMT-68" transform="translate(72.216797 0)"/>
     <use xlink:href="#Arial-BoldMT-61" transform="translate(133.300781 0)"/>
     <use xlink:href="#Arial-BoldMT-72" transform="translate(188.916016 0)"/>
     <use xlink:href="#Arial-BoldMT-74" transform="translate(227.832031 0)"/>
     <use xlink:href="#Arial-BoldMT-73" transform="translate(261.132812 0)"/>
     <use xlink:href="#Arial-BoldMT-20" transform="translate(316.748047 0)"/>
     <use xlink:href="#Arial-BoldMT-2b" transform="translate(344.53125 0)"/>
    </g>
    <!-- Diagrams -->
    <g style="fill: #0f172a" transform="translate(615.22245 278.179172) scale(0.09 -0.09)">
     <use xlink:href="#Arial-BoldMT-44"/>
     <use xlink:href="#Arial-BoldMT-69" transform="translate(72.216797 0)"/>
     <use xlink:href="#Arial-BoldMT-61" transform="translate(100 0)"/>
     <use xlink:href="#Arial-BoldMT-67" transform="translate(155.615234 0)"/>
     <use xlink:href="#Arial-BoldMT-72" transform="translate(216.699219 0)"/>
     <use xlink:href="#Arial-BoldMT-61" transform="translate(255.615234 0)"/>
     <use xlink:href="#Arial-BoldMT-6d" transform="translate(311.230469 0)"/>
     <use xlink:href="#Arial-BoldMT-73" transform="translate(400.146484 0)"/>
    </g>
   </g>
  </g>
 </g>
 <defs>
  <clipPath id="p5e90193a0f">
   <rect x="7.2" y="7.2" width="982.08" height="406.08"/>
  </clipPath>
 </defs>
</svg>
