<?xml version="1.0" encoding="utf-8" standalone="no"?>
<!DOCTYPE svg PUBLIC "-//W3C//DTD SVG 1.1//EN"
  "http://www.w3.org/Graphics/SVG/1.1/DTD/svg11.dtd">
<svg xmlns:xlink="http://www.w3.org/1999/xlink" width="996.48pt" height="420.48pt" viewBox="0 0 996.48 420.48" xmlns="http://www.w3.org/2000/svg" version="1.1">
 <metadata>
  <rdf:RDF xmlns:dc="http://purl.org/dc/elements/1.1/" xmlns:cc="http://creativecommons.org/ns#" xmlns:rdf="http://www.w3.org/1999/02/22-rdf-syntax-ns#">
   <cc:Work>
    <dc:type rdf:resource="http://purl.org/dc/dcmitype/StillImage"/>
    <dc:date>2026-05-11T19:57:48.676827</dc:date>
    <dc:format>image/svg+xml</dc:format>
    <dc:creator>
     <cc:Agent>
      <dc:title>Matplotlib v3.10.8, https://matplotlib.org/</dc:title>
     </cc:Agent>
    </dc:creator>
   </cc:Work>
  </rdf:RDF>
 </metadata>
 <defs>
  <style type="text/css">*{stroke-linejoin: round; stroke-linecap: butt}</style>
 </defs>
 <g id="figure_1">
  <g id="patch_1">
   <path d="M 0 420.48 
L 996.48 420.48 
L 996.48 0 
L 0 0 
z
" style="fill: #ffffff"/>
  </g>
  <g id="axes_1">
   <g id="patch_2">
    <path d="M 125.0496 137.1456 
L 282.1824 137.1456 
Q 301.824 137.1456 301.824 129.024 
L 301.824 88.416 
Q 301.824 80.2944 282.1824 80.2944 
L 125.0496 80.2944 
Q 105.408 80.2944 105.408 88.416 
L 105.408 129.024 
Q 105.408 137.1456 125.0496 137.1456 
z
" clip-path="url(#p364b6ad829)" style="fill: #dbeafe; stroke: #1d4ed8; stroke-width: 1.7; stroke-linejoin: miter"/>
   </g>
   <g id="patch_3">
    <path d="M 125.0496 299.5776 
L 282.1824 299.5776 
Q 301.824 299.5776 301.824 291.456 
L 301.824 250.848 
Q 301.824 242.7264 282.1824 242.7264 
L 125.0496 242.7264 
Q 105.408 242.7264 105.408 250.848 
L 105.408 291.456 
Q 105.408 299.5776 125.0496 299.5776 
z
" clip-path="url(#p364b6ad829)" style="fill: #dcfce7; stroke: #15803d; stroke-width: 1.7; stroke-linejoin: miter"/>
   </g>
   <g id="patch_4">
    <path d="M 419.6736 218.3616 
L 576.8064 218.3616 
Q 596.448 218.3616 596.448 210.24 
L 596.448 169.632 
Q 596.448 161.5104 576.8064 161.5104 
L 419.6736 161.5104 
Q 400.032 161.5104 400.032 169.632 
L 400.032 210.24 
Q 400.032 218.3616 419.6736 218.3616 
z
" clip-path="url(#p364b6ad829)" style="fill: #fef3c7; stroke: #b45309; stroke-width: 1.7; stroke-linejoin: miter"/>
   </g>
   <g id="patch_5">
    <path d="M 665.1936 218.3616 
L 822.3264 218.3616 
Q 841.968 218.3616 841.968 210.24 
L 841.968 169.632 
Q 841.968 161.5104 822.3264 161.5104 
L 665.1936 161.5104 
Q 645.552 161.5104 645.552 169.632 
L 645.552 210.24 
Q 645.552 218.3616 665.1936 218.3616 
z
" clip-path="url(#p364b6ad829)" style="fill: #fee2e2; stroke: #b91c1c; stroke-width: 1.7; stroke-linejoin: miter"/>
   </g>
   <g id="patch_6">
    <path d="M 419.6736 380.7936 
L 576.8064 380.7936 
Q 596.448 380.7936 596.448 372.672 
L 596.448 332.064 
Q 596.448 323.9424 576.8064 323.9424 
L 419.6736 323.9424 
Q 400.032 323.9424 400.032 332.064 
L 400.032 372.672 
Q 400.032 380.7936 419.6736 380.7936 
z
" clip-path="url(#p364b6ad829)" style="fill: #e2e8f0; stroke: #475569; stroke-width: 1.7; stroke-linejoin: miter"/>
   </g>
   <g id="patch_7">
    <path d="M 284.007616 117.650216 
Q 350.927694 147.297465 416.212237 176.22013 
" clip-path="url(#p364b6ad829)" style="fill: none; stroke: #475569; stroke-width: 1.6; stroke-linecap: round"/>
    <path d="M 412.22635 171.391807 
L 416.212237 176.22013 
L 409.958046 176.511846 
z
" clip-path="url(#p364b6ad829)" style="fill: #475569; stroke: #475569; stroke-width: 1.6; stroke-linecap: round"/>
   </g>
   <g id="patch_8">
    <path d="M 284.007616 262.221784 
Q 350.927694 232.574535 416.212237 203.65187 
" clip-path="url(#p364b6ad829)" style="fill: none; stroke: #475569; stroke-width: 1.6; stroke-linecap: round"/>
    <path d="M 409.958046 203.360154 
L 416.212237 203.65187 
L 412.22635 208.480193 
z
" clip-path="url(#p364b6ad829)" style="fill: #475569; stroke: #475569; stroke-width: 1.6; stroke-linecap: round"/>
   </g>
   <g id="patch_9">
    <path d="M 578.805146 189.936 
Q 620.998872 189.936 661.403744 189.936 
" clip-path="url(#p364b6ad829)" style="fill: none; stroke: #475569; stroke-width: 1.6; stroke-linecap: round"/>
    <path d="M 655.803744 187.136 
L 661.403744 189.936 
L 655.803744 192.736 
z
" clip-path="url(#p364b6ad829)" style="fill: #475569; stroke: #475569; stroke-width: 1.6; stroke-linecap: round"/>
   </g>
   <g id="patch_10">
    <path d="M 663.194854 210.24 
Q 621.001128 210.24 580.596256 210.24 
" clip-path="url(#p364b6ad829)" style="fill: none; stroke: #475569; stroke-width: 1.6; stroke-linecap: round"/>
    <path d="M 586.196256 213.04 
L 580.596256 210.24 
L 586.196256 207.44 
z
" clip-path="url(#p364b6ad829)" style="fill: #475569; stroke: #475569; stroke-width: 1.6; stroke-linecap: round"/>
   </g>
   <g id="patch_11">
    <path d="M 498.24 321.944345 
Q 498.24 277.244143 498.24 234.332795 
" clip-path="url(#p364b6ad829)" style="fill: none; stroke: #475569; stroke-width: 1.6; stroke-linecap: round"/>
    <path d="M 495.44 239.932795 
L 498.24 234.332795 
L 501.04 239.932795 
z
" clip-path="url(#p364b6ad829)" style="fill: #475569; stroke: #475569; stroke-width: 1.6; stroke-linecap: round"/>
   </g>
   <g id="patch_12">
    <path d="M 578.394548 322.722846 
Q 645.552877 271.151326 711.292413 220.669312 
" clip-path="url(#p364b6ad829)" style="fill: none; stroke: #475569; stroke-width: 1.6; stroke-linecap: round"/>
    <path d="M 705.145538 221.85924 
L 711.292413 220.669312 
L 708.55623 226.300768 
z
" clip-path="url(#p364b6ad829)" style="fill: #475569; stroke: #475569; stroke-width: 1.6; stroke-linecap: round"/>
   </g>
   <g id="text_1">
    <!-- System Architecture Diagram - Corrected -->
    <g style="fill: #0f172a" transform="translate(341.605 31.644) scale(0.16 -0.16)">
     <defs>
      <path id="Arial-BoldMT-53" d="M 231 1491 
L 1131 1578 
Q 1213 1125 1461 912 
Q 1709 700 2131 700 
Q 2578 700 2804 889 
Q 3031 1078 3031 1331 
Q 3031 1494 2936 1608 
Q 2841 1722 2603 1806 
Q 2441 1863 1863 2006 
Q 1119 2191 819 2459 
Q 397 2838 397 3381 
Q 397 3731 595 4036 
Q 794 4341 1167 4500 
Q 1541 4659 2069 4659 
Q 2931 4659 3367 4281 
Q 3803 3903 3825 3272 
L 2900 3231 
Q 2841 3584 2645 3739 
Q 2450 3894 2059 3894 
Q 1656 3894 1428 3728 
Q 1281 3622 1281 3444 
Q 1281 3281 1419 3166 
Q 1594 3019 2269 2859 
Q 2944 2700 3267 2529 
Q 3591 2359 3773 2064 
Q 3956 1769 3956 1334 
Q 3956 941 3737 597 
Q 3519 253 3119 86 
Q 2719 -81 2122 -81 
Q 1253 -81 787 320 
Q 322 722 231 1491 
z
" transform="scale(0.015625)"/>
      <path id="Arial-BoldMT-79" d="M 44 3319 
L 978 3319 
L 1772 963 
L 2547 3319 
L 3456 3319 
L 2284 125 
L 2075 -453 
Q 1959 -744 1854 -897 
Q 1750 -1050 1614 -1145 
Q 1478 -1241 1279 -1294 
Q 1081 -1347 831 -1347 
Q 578 -1347 334 -1294 
L 256 -606 
Q 463 -647 628 -647 
Q 934 -647 1081 -467 
Q 1228 -288 1306 -9 
L 44 3319 
z
" transform="scale(0.015625)"/>
      <path id="Arial-BoldMT-73" d="M 150 947 
L 1031 1081 
Q 1088 825 1259 692 
Q 1431 559 1741 559 
Q 2081 559 2253 684 
Q 2369 772 2369 919 
Q 2369 1019 2306 1084 
Q 2241 1147 2013 1200 
Q 950 1434 666 1628 
Q 272 1897 272 2375 
Q 272 2806 612 3100 
Q 953 3394 1669 3394 
Q 2350 3394 2681 3172 
Q 3013 2950 3138 2516 
L 2309 2363 
Q 2256 2556 2107 2659 
Q 1959 2763 1684 2763 
Q 1338 2763 1188 2666 
Q 1088 2597 1088 2488 
Q 1088 2394 1175 2328 
Q 1294 2241 1995 2081 
Q 2697 1922 2975 1691 
Q 3250 1456 3250 1038 
Q 3250 581 2869 253 
Q 2488 -75 1741 -75 
Q 1063 -75 667 200 
Q 272 475 150 947 
z
" transform="scale(0.015625)"/>
      <path id="Arial-BoldMT-74" d="M 1981 3319 
L 1981 2619 
L 1381 2619 
L 1381 1281 
Q 1381 875 1398 808 
Q 1416 741 1477 697 
Q 1538 653 1625 653 
Q 1747 653 1978 738 
L 2053 56 
Q 1747 -75 1359 -75 
Q 1122 -75 931 4 
Q 741 84 652 211 
Q 563 338 528 553 
Q 500 706 500 1172 
L 500 2619 
L 97 2619 
L 97 3319 
L 500 3319 
L 500 3978 
L 1381 4491 
L 1381 3319 
L 1981 3319 
z
" transform="scale(0.015625)"/>
      <path id="Arial-BoldMT-65" d="M 2381 1056 
L 3256 909 
Q 3088 428 2723 176 
Q 2359 -75 1813 -75 
Q 947 -75 531 491 
Q 203 944 203 1634 
Q 203 2459 634 2926 
Q 1066 3394 1725 3394 
Q 2466 3394 2894 2905 
Q 3322 2416 3303 1406 
L 1103 1406 
Q 1113 1016 1316 798 
Q 1519 581 1822 581 
Q 2028 581 2168 693 
Q 2309 806 2381 1056 
z
M 2431 1944 
Q 2422 2325 2234 2523 
Q 2047 2722 1778 2722 
Q 1491 2722 1303 2513 
Q 1116 2303 1119 1944 
L 2431 1944 
z
" transform="scale(0.015625)"/>
      <path id="Arial-BoldMT-6d" d="M 394 3319 
L 1203 3319 
L 1203 2866 
Q 1638 3394 2238 3394 
Q 2556 3394 2790 3262 
Q 3025 3131 3175 2866 
Q 3394 3131 3647 3262 
Q 3900 3394 4188 3394 
Q 4553 3394 4806 3245 
Q 5059 3097 5184 2809 
Q 5275 2597 5275 2122 
L 5275 0 
L 4397 0 
L 4397 1897 
Q 4397 2391 4306 2534 
Q 4184 2722 3931 2722 
Q 3747 2722 3584 2609 
Q 3422 2497 3350 2280 
Q 3278 2063 3278 1594 
L 3278 0 
L 2400 0 
L 2400 1819 
Q 2400 2303 2353 2443 
Q 2306 2584 2207 2653 
Q 2109 2722 1941 2722 
Q 1738 2722 1575 2612 
Q 1413 2503 1342 2297 
Q 1272 2091 1272 1613 
L 1272 0 
L 394 0 
L 394 3319 
z
" transform="scale(0.015625)"/>
      <path id="Arial-BoldMT-20" transform="scale(0.015625)"/>
      <path id="Arial-BoldMT-41" d="M 4597 0 
L 3591 0 
L 3191 1041 
L 1359 1041 
L 981 0 
L 0 0 
L 1784 4581 
L 2763 4581 
L 4597 0 
z
M 2894 1813 
L 2263 3513 
L 1644 1813 
L 2894 1813 
z
" transform="scale(0.015625)"/>
      <path id="Arial-BoldMT-72" d="M 1300 0 
L 422 0 
L 422 3319 
L 1238 3319 
L 1238 2847 
Q 1447 3181 1614 3287 
Q 1781 3394 1994 3394 
Q 2294 3394 2572 3228 
L 2300 2463 
Q 2078 2606 1888 2606 
Q 1703 2606 1575 2504 
Q 1447 2403 1373 2137 
Q 1300 1872 1300 1025 
L 1300 0 
z
" transform="scale(0.015625)"/>
      <path id="Arial-BoldMT-63" d="M 3353 2338 
L 2488 2181 
Q 2444 2441 2289 2572 
Q 2134 2703 1888 2703 
Q 1559 2703 1364 2476 
Q 1169 2250 1169 1719 
Q 1169 1128 1367 884 
Q 1566 641 1900 641 
Q 2150 641 2309 783 
Q 2469 925 2534 1272 
L 3397 1125 
Q 3263 531 2881 228 
Q 2500 -75 1859 -75 
Q 1131 -75 698 384 
Q 266 844 266 1656 
Q 266 2478 700 2936 
Q 1134 3394 1875 3394 
Q 2481 3394 2839 3133 
Q 3197 2872 3353 2338 
z
" transform="scale(0.015625)"/>
      <path id="Arial-BoldMT-68" d="M 1334 4581 
L 1334 2897 
Q 1759 3394 2350 3394 
Q 2653 3394 2897 3281 
Q 3141 3169 3264 2994 
Q 3388 2819 3433 2606 
Q 3478 2394 3478 1947 
L 3478 0 
L 2600 0 
L 2600 1753 
Q 2600 2275 2550 2415 
Q 2500 2556 2373 2639 
Q 2247 2722 2056 2722 
Q 1838 2722 1666 2615 
Q 1494 2509 1414 2295 
Q 1334 2081 1334 1663 
L 1334 0 
L 456 0 
L 456 4581 
L 1334 4581 
z
" transform="scale(0.015625)"/>
      <path id="Arial-BoldMT-69" d="M 459 3769 
L 459 4581 
L 1338 4581 
L 1338 3769 
L 459 3769 
z
M 459 0 
L 459 3319 
L 1338 3319 
L 1338 0 
L 459 0 
z
" transform="scale(0.015625)"/>
      <path id="Arial-BoldMT-75" d="M 2644 0 
L 2644 497 
Q 2463 231 2167 78 
Q 1872 -75 1544 -75 
Q 1209 -75 943 72 
Q 678 219 559 484 
Q 441 750 441 1219 
L 441 3319 
L 1319 3319 
L 1319 1794 
Q 1319 1094 1367 936 
Q 1416 778 1544 686 
Q 1672 594 1869 594 
Q 2094 594 2272 717 
Q 2450 841 2515 1023 
Q 2581 1206 2581 1919 
L 2581 3319 
L 3459 3319 
L 3459 0 
L 2644 0 
z
" transform="scale(0.015625)"/>
      <path id="Arial-BoldMT-44" d="M 463 4581 
L 2153 4581 
Q 2725 4581 3025 4494 
Q 3428 4375 3715 4072 
Q 4003 3769 4153 3330 
Q 4303 2891 4303 2247 
Q 4303 1681 4163 1272 
Q 3991 772 3672 463 
Q 3431 228 3022 97 
Q 2716 0 2203 0 
L 463 0 
L 463 4581 
z
M 1388 3806 
L 1388 772 
L 2078 772 
Q 2466 772 2638 816 
Q 2863 872 3011 1006 
Q 3159 1141 3253 1448 
Q 3347 1756 3347 2288 
Q 3347 2819 3253 3103 
Q 3159 3388 2990 3547 
Q 2822 3706 2563 3763 
Q 2369 3806 1803 3806 
L 1388 3806 
z
" transform="scale(0.015625)"/>
      <path id="Arial-BoldMT-61" d="M 1116 2306 
L 319 2450 
Q 453 2931 781 3162 
Q 1109 3394 1756 3394 
Q 2344 3394 2631 3255 
Q 2919 3116 3036 2902 
Q 3153 2688 3153 2116 
L 3144 1091 
Q 3144 653 3186 445 
Q 3228 238 3344 0 
L 2475 0 
Q 2441 88 2391 259 
Q 2369 338 2359 363 
Q 2134 144 1878 34 
Q 1622 -75 1331 -75 
Q 819 -75 523 203 
Q 228 481 228 906 
Q 228 1188 362 1408 
Q 497 1628 739 1745 
Q 981 1863 1438 1950 
Q 2053 2066 2291 2166 
L 2291 2253 
Q 2291 2506 2166 2614 
Q 2041 2722 1694 2722 
Q 1459 2722 1328 2630 
Q 1197 2538 1116 2306 
z
M 2291 1594 
Q 2122 1538 1756 1459 
Q 1391 1381 1278 1306 
Q 1106 1184 1106 997 
Q 1106 813 1243 678 
Q 1381 544 1594 544 
Q 1831 544 2047 700 
Q 2206 819 2256 991 
Q 2291 1103 2291 1419 
L 2291 1594 
z
" transform="scale(0.015625)"/>
      <path id="Arial-BoldMT-67" d="M 378 -219 
L 1381 -341 
Q 1406 -516 1497 -581 
Q 1622 -675 1891 -675 
Q 2234 -675 2406 -572 
Q 2522 -503 2581 -350 
Q 2622 -241 2622 53 
L 2622 538 
Q 2228 0 1628 0 
Q 959 0 569 566 
Q 263 1013 263 1678 
Q 263 2513 664 2953 
Q 1066 3394 1663 3394 
Q 2278 3394 2678 2853 
L 2678 3319 
L 3500 3319 
L 3500 341 
Q 3500 -247 3403 -537 
Q 3306 -828 3131 -993 
Q 2956 -1159 2664 -1253 
Q 2372 -1347 1925 -1347 
Q 1081 -1347 728 -1058 
Q 375 -769 375 -325 
Q 375 -281 378 -219 
z
M 1163 1728 
Q 1163 1200 1367 954 
Q 1572 709 1872 709 
Q 2194 709 2416 961 
Q 2638 1213 2638 1706 
Q 2638 2222 2425 2472 
Q 2213 2722 1888 2722 
Q 1572 2722 1367 2476 
Q 1163 2231 1163 1728 
z
" transform="scale(0.015625)"/>
      <path id="Arial-BoldMT-2d" d="M 359 1222 
L 359 2100 
L 2084 2100 
L 2084 1222 
L 359 1222 
z
" transform="scale(0.015625)"/>
      <path id="Arial-BoldMT-43" d="M 3397 1684 
L 4294 1400 
Q 4088 650 3608 286 
Q 3128 -78 2391 -78 
Q 1478 -78 890 545 
Q 303 1169 303 2250 
Q 303 3394 893 4026 
Q 1484 4659 2447 4659 
Q 3288 4659 3813 4163 
Q 4125 3869 4281 3319 
L 3366 3100 
Q 3284 3456 3026 3662 
Q 2769 3869 2400 3869 
Q 1891 3869 1573 3503 
Q 1256 3138 1256 2319 
Q 1256 1450 1568 1081 
Q 1881 713 2381 713 
Q 2750 713 3015 947 
Q 3281 1181 3397 1684 
z
" transform="scale(0.015625)"/>
      <path id="Arial-BoldMT-6f" d="M 256 1706 
Q 256 2144 472 2553 
Q 688 2963 1083 3178 
Q 1478 3394 1966 3394 
Q 2719 3394 3200 2905 
Q 3681 2416 3681 1669 
Q 3681 916 3195 420 
Q 2709 -75 1972 -75 
Q 1516 -75 1102 131 
Q 688 338 472 736 
Q 256 1134 256 1706 
z
M 1156 1659 
Q 1156 1166 1390 903 
Q 1625 641 1969 641 
Q 2313 641 2545 903 
Q 2778 1166 2778 1666 
Q 2778 2153 2545 2415 
Q 2313 2678 1969 2678 
Q 1625 2678 1390 2415 
Q 1156 2153 1156 1659 
z
" transform="scale(0.015625)"/>
      <path id="Arial-BoldMT-64" d="M 3503 0 
L 2688 0 
L 2688 488 
Q 2484 203 2207 64 
Q 1931 -75 1650 -75 
Q 1078 -75 670 386 
Q 263 847 263 1672 
Q 263 2516 659 2955 
Q 1056 3394 1663 3394 
Q 2219 3394 2625 2931 
L 2625 4581 
L 3503 4581 
L 3503 0 
z
M 1159 1731 
Q 1159 1200 1306 963 
Q 1519 619 1900 619 
Q 2203 619 2415 876 
Q 2628 1134 2628 1647 
Q 2628 2219 2422 2470 
Q 2216 2722 1894 2722 
Q 1581 2722 1370 2473 
Q 1159 2225 1159 1731 
z
" transform="scale(0.015625)"/>
     </defs>
     <use xlink:href="#Arial-BoldMT-53"/>
     <use xlink:href="#Arial-BoldMT-79" transform="translate(66.699219 0)"/>
     <use xlink:href="#Arial-BoldMT-73" transform="translate(122.314453 0)"/>
     <use xlink:href="#Arial-BoldMT-74" transform="translate(177.929688 0)"/>
     <use xlink:href="#Arial-BoldMT-65" transform="translate(211.230469 0)"/>
     <use xlink:href="#Arial-BoldMT-6d" transform="translate(266.845703 0)"/>
     <use xlink:href="#Arial-BoldMT-20" transform="translate(355.761719 0)"/>
     <use xlink:href="#Arial-BoldMT-41" transform="translate(379.794922 0)"/>
     <use xlink:href="#Arial-BoldMT-72" transform="translate(452.011719 0)"/>
     <use xlink:href="#Arial-BoldMT-63" transform="translate(490.927734 0)"/>
     <use xlink:href="#Arial-BoldMT-68" transform="translate(546.542969 0)"/>
     <use xlink:href="#Arial-BoldMT-69" transform="translate(607.626953 0)"/>
     <use xlink:href="#Arial-BoldMT-74" transform="translate(635.410156 0)"/>
     <use xlink:href="#Arial-BoldMT-65" transform="translate(668.710938 0)"/>
     <use xlink:href="#Arial-BoldMT-63" transform="translate(724.326172 0)"/>
     <use xlink:href="#Arial-BoldMT-74" transform="translate(779.941406 0)"/>
     <use xlink:href="#Arial-BoldMT-75" transform="translate(813.242188 0)"/>
     <use xlink:href="#Arial-BoldMT-72" transform="translate(874.326172 0)"/>
     <use xlink:href="#Arial-BoldMT-65" transform="translate(913.242188 0)"/>
     <use xlink:href="#Arial-BoldMT-20" transform="translate(968.857422 0)"/>
     <use xlink:href="#Arial-BoldMT-44" transform="translate(996.640625 0)"/>
     <use xlink:href="#Arial-BoldMT-69" transform="translate(1068.857422 0)"/>
     <use xlink:href="#Arial-BoldMT-61" transform="translate(1096.640625 0)"/>
     <use xlink:href="#Arial-BoldMT-67" transform="translate(1152.255859 0)"/>
     <use xlink:href="#Arial-BoldMT-72" transform="translate(1213.339844 0)"/>
     <use xlink:href="#Arial-BoldMT-61" transform="translate(1252.255859 0)"/>
     <use xlink:href="#Arial-BoldMT-6d" transform="translate(1307.871094 0)"/>
     <use xlink:href="#Arial-BoldMT-20" transform="translate(1396.787109 0)"/>
     <use xlink:href="#Arial-BoldMT-2d" transform="translate(1424.570312 0)"/>
     <use xlink:href="#Arial-BoldMT-20" transform="translate(1457.871094 0)"/>
     <use xlink:href="#Arial-BoldMT-43" transform="translate(1485.654297 0)"/>
     <use xlink:href="#Arial-BoldMT-6f" transform="translate(1557.871094 0)"/>
     <use xlink:href="#Arial-BoldMT-72" transform="translate(1618.955078 0)"/>
     <use xlink:href="#Arial-BoldMT-72" transform="translate(1657.871094 0)"/>
     <use xlink:href="#Arial-BoldMT-65" transform="translate(1696.787109 0)"/>
     <use xlink:href="#Arial-BoldMT-63" transform="translate(1752.402344 0)"/>
     <use xlink:href="#Arial-BoldMT-74" transform="translate(1808.017578 0)"/>
     <use xlink:href="#Arial-BoldMT-65" transform="translate(1841.318359 0)"/>
     <use xlink:href="#Arial-BoldMT-64" transform="translate(1896.933594 0)"/>
    </g>
   </g>
   <g id="text_2">
    <!-- Streamlit UI -->
    <g style="fill: #0f172a" transform="translate(178.609359 111.052969) scale(0.09 -0.09)">
     <defs>
      <path id="Arial-BoldMT-6c" d="M 459 0 
L 459 4581 
L 1338 4581 
L 1338 0 
L 459 0 
z
" transform="scale(0.015625)"/>
      <path id="Arial-BoldMT-55" d="M 459 4581 
L 1384 4581 
L 1384 2100 
Q 1384 1509 1419 1334 
Q 1478 1053 1701 883 
Q 1925 713 2313 713 
Q 2706 713 2906 873 
Q 3106 1034 3147 1268 
Q 3188 1503 3188 2047 
L 3188 4581 
L 4113 4581 
L 4113 2175 
Q 4113 1350 4038 1009 
Q 3963 669 3761 434 
Q 3559 200 3221 61 
Q 2884 -78 2341 -78 
Q 1684 -78 1345 73 
Q 1006 225 809 467 
Q 613 709 550 975 
Q 459 1369 459 2138 
L 459 4581 
z
" transform="scale(0.015625)"/>
      <path id="Arial-BoldMT-49" d="M 438 0 
L 438 4581 
L 1363 4581 
L 1363 0 
L 438 0 
z
" transform="scale(0.015625)"/>
     </defs>
     <use xlink:href="#Arial-BoldMT-53"/>
     <use xlink:href="#Arial-BoldMT-74" transform="translate(66.699219 0)"/>
     <use xlink:href="#Arial-BoldMT-72" transform="translate(100 0)"/>
     <use xlink:href="#Arial-BoldMT-65" transform="translate(138.916016 0)"/>
     <use xlink:href="#Arial-BoldMT-61" transform="translate(194.53125 0)"/>
     <use xlink:href="#Arial-BoldMT-6d" transform="translate(250.146484 0)"/>
     <use xlink:href="#Arial-BoldMT-6c" transform="translate(339.0625 0)"/>
     <use xlink:href="#Arial-BoldMT-69" transform="translate(366.845703 0)"/>
     <use xlink:href="#Arial-BoldMT-74" transform="translate(394.628906 0)"/>
     <use xlink:href="#Arial-BoldMT-20" transform="translate(427.929688 0)"/>
     <use xlink:href="#Arial-BoldMT-55" transform="translate(455.712891 0)"/>
     <use xlink:href="#Arial-BoldMT-49" transform="translate(527.929688 0)"/>
    </g>
   </g>
   <g id="text_3">
    <!-- FastAPI -->
    <g style="fill: #0f172a" transform="translate(186.862641 273.484969) scale(0.09 -0.09)">
     <defs>
      <path id="Arial-BoldMT-46" d="M 472 0 
L 472 4581 
L 3613 4581 
L 3613 3806 
L 1397 3806 
L 1397 2722 
L 3309 2722 
L 3309 1947 
L 1397 1947 
L 1397 0 
L 472 0 
z
" transform="scale(0.015625)"/>
      <path id="Arial-BoldMT-50" d="M 466 0 
L 466 4581 
L 1950 4581 
Q 2794 4581 3050 4513 
Q 3444 4409 3709 4064 
Q 3975 3719 3975 3172 
Q 3975 2750 3822 2462 
Q 3669 2175 3433 2011 
Q 3197 1847 2953 1794 
Q 2622 1728 1994 1728 
L 1391 1728 
L 1391 0 
L 466 0 
z
M 1391 3806 
L 1391 2506 
L 1897 2506 
Q 2444 2506 2628 2578 
Q 2813 2650 2917 2803 
Q 3022 2956 3022 3159 
Q 3022 3409 2875 3571 
Q 2728 3734 2503 3775 
Q 2338 3806 1838 3806 
L 1391 3806 
z
" transform="scale(0.015625)"/>
     </defs>
     <use xlink:href="#Arial-BoldMT-46"/>
     <use xlink:href="#Arial-BoldMT-61" transform="translate(61.083984 0)"/>
     <use xlink:href="#Arial-BoldMT-73" transform="translate(116.699219 0)"/>
     <use xlink:href="#Arial-BoldMT-74" transform="translate(172.314453 0)"/>
     <use xlink:href="#Arial-BoldMT-41" transform="translate(205.615234 0)"/>
     <use xlink:href="#Arial-BoldMT-50" transform="translate(277.832031 0)"/>
     <use xlink:href="#Arial-BoldMT-49" transform="translate(344.53125 0)"/>
    </g>
   </g>
   <g id="text_4">
    <!-- Preprocessing -->
    <g style="fill: #0f172a" transform="translate(466.979062 187.331766) scale(0.09 -0.09)">
     <defs>
      <path id="Arial-BoldMT-70" d="M 434 3319 
L 1253 3319 
L 1253 2831 
Q 1413 3081 1684 3237 
Q 1956 3394 2288 3394 
Q 2866 3394 3269 2941 
Q 3672 2488 3672 1678 
Q 3672 847 3265 386 
Q 2859 -75 2281 -75 
Q 2006 -75 1782 34 
Q 1559 144 1313 409 
L 1313 -1263 
L 434 -1263 
L 434 3319 
z
M 1303 1716 
Q 1303 1156 1525 889 
Q 1747 622 2066 622 
Q 2372 622 2575 867 
Q 2778 1113 2778 1672 
Q 2778 2194 2568 2447 
Q 2359 2700 2050 2700 
Q 1728 2700 1515 2451 
Q 1303 2203 1303 1716 
z
" transform="scale(0.015625)"/>
      <path id="Arial-BoldMT-6e" d="M 3478 0 
L 2600 0 
L 2600 1694 
Q 2600 2231 2544 2389 
Q 2488 2547 2361 2634 
Q 2234 2722 2056 2722 
Q 1828 2722 1647 2597 
Q 1466 2472 1398 2265 
Q 1331 2059 1331 1503 
L 1331 0 
L 453 0 
L 453 3319 
L 1269 3319 
L 1269 2831 
Q 1703 3394 2363 3394 
Q 2653 3394 2893 3289 
Q 3134 3184 3257 3021 
Q 3381 2859 3429 2653 
Q 3478 2447 3478 2063 
L 3478 0 
z
" transform="scale(0.015625)"/>
     </defs>
     <use xlink:href="#Arial-BoldMT-50"/>
     <use xlink:href="#Arial-BoldMT-72" transform="translate(66.699219 0)"/>
     <use xlink:href="#Arial-BoldMT-65" transform="translate(105.615234 0)"/>
     <use xlink:href="#Arial-BoldMT-70" transform="translate(161.230469 0)"/>
     <use xlink:href="#Arial-BoldMT-72" transform="translate(222.314453 0)"/>
     <use xlink:href="#Arial-BoldMT-6f" transform="translate(261.230469 0)"/>
     <use xlink:href="#Arial-BoldMT-63" transform="translate(322.314453 0)"/>
     <use xlink:href="#Arial-BoldMT-65" transform="translate(377.929688 0)"/>
     <use xlink:href="#Arial-BoldMT-73" transform="translate(433.544922 0)"/>
     <use xlink:href="#Arial-BoldMT-73" transform="translate(489.160156 0)"/>
     <use xlink:href="#Arial-BoldMT-69" transform="translate(544.775391 0)"/>
     <use xlink:href="#Arial-BoldMT-6e" transform="translate(572.558594 0)"/>
     <use xlink:href="#Arial-BoldMT-67" transform="translate(633.642578 0)"/>
    </g>
    <!-- Mapping + Scaling -->
    <g style="fill: #0f172a" transform="translate(458.612578 197.088047) scale(0.09 -0.09)">
     <defs>
      <path id="Arial-BoldMT-4d" d="M 453 0 
L 453 4581 
L 1838 4581 
L 2669 1456 
L 3491 4581 
L 4878 4581 
L 4878 0 
L 4019 0 
L 4019 3606 
L 3109 0 
L 2219 0 
L 1313 3606 
L 1313 0 
L 453 0 
z
" transform="scale(0.015625)"/>
      <path id="Arial-BoldMT-2b" d="M 1466 659 
L 1466 1850 
L 266 1850 
L 266 2672 
L 1466 2672 
L 1466 3863 
L 2266 3863 
L 2266 2672 
L 3469 2672 
L 3469 1850 
L 2266 1850 
L 2266 659 
L 1466 659 
z
" transform="scale(0.015625)"/>
     </defs>
     <use xlink:href="#Arial-BoldMT-4d"/>
     <use xlink:href="#Arial-BoldMT-61" transform="translate(83.300781 0)"/>
     <use xlink:href="#Arial-BoldMT-70" transform="translate(138.916016 0)"/>
     <use xlink:href="#Arial-BoldMT-70" transform="translate(200 0)"/>
     <use xlink:href="#Arial-BoldMT-69" transform="translate(261.083984 0)"/>
     <use xlink:href="#Arial-BoldMT-6e" transform="translate(288.867188 0)"/>
     <use xlink:href="#Arial-BoldMT-67" transform="translate(349.951172 0)"/>
     <use xlink:href="#Arial-BoldMT-20" transform="translate(411.035156 0)"/>
     <use xlink:href="#Arial-BoldMT-2b" transform="translate(438.818359 0)"/>
     <use xlink:href="#Arial-BoldMT-20" transform="translate(497.216797 0)"/>
     <use xlink:href="#Arial-BoldMT-53" transform="translate(525 0)"/>
     <use xlink:href="#Arial-BoldMT-63" transform="translate(591.699219 0)"/>
     <use xlink:href="#Arial-BoldMT-61" transform="translate(647.314453 0)"/>
     <use xlink:href="#Arial-BoldMT-6c" transform="translate(702.929688 0)"/>
     <use xlink:href="#Arial-BoldMT-69" transform="translate(730.712891 0)"/>
     <use xlink:href="#Arial-BoldMT-6e" transform="translate(758.496094 0)"/>
     <use xlink:href="#Arial-BoldMT-67" transform="translate(819.580078 0)"/>
    </g>
   </g>
   <g id="text_5">
    <!-- MLP Model -->
    <g style="fill: #0f172a" transform="translate(720.092109 187.390828) scale(0.09 -0.09)">
     <defs>
      <path id="Arial-BoldMT-4c" d="M 491 0 
L 491 4544 
L 1416 4544 
L 1416 772 
L 3716 772 
L 3716 0 
L 491 0 
z
" transform="scale(0.015625)"/>
     </defs>
     <use xlink:href="#Arial-BoldMT-4d"/>
     <use xlink:href="#Arial-BoldMT-4c" transform="translate(83.300781 0)"/>
     <use xlink:href="#Arial-BoldMT-50" transform="translate(144.384766 0)"/>
     <use xlink:href="#Arial-BoldMT-20" transform="translate(209.333984 0)"/>
     <use xlink:href="#Arial-BoldMT-4d" transform="translate(237.117188 0)"/>
     <use xlink:href="#Arial-BoldMT-6f" transform="translate(320.417969 0)"/>
     <use xlink:href="#Arial-BoldMT-64" transform="translate(381.501953 0)"/>
     <use xlink:href="#Arial-BoldMT-65" transform="translate(442.585938 0)"/>
     <use xlink:href="#Arial-BoldMT-6c" transform="translate(498.201172 0)"/>
    </g>
    <!-- (12 Features) -->
    <g style="fill: #0f172a" transform="translate(715.751719 197.028984) scale(0.09 -0.09)">
     <defs>
      <path id="Arial-BoldMT-28" d="M 1916 -1347 
L 1313 -1347 
Q 834 -625 584 153 
Q 334 931 334 1659 
Q 334 2563 644 3369 
Q 913 4069 1325 4659 
L 1925 4659 
Q 1497 3713 1336 3048 
Q 1175 2384 1175 1641 
Q 1175 1128 1270 590 
Q 1366 53 1531 -431 
Q 1641 -750 1916 -1347 
z
" transform="scale(0.015625)"/>
      <path id="Arial-BoldMT-31" d="M 2519 0 
L 1641 0 
L 1641 3309 
Q 1159 2859 506 2644 
L 506 3441 
Q 850 3553 1253 3867 
Q 1656 4181 1806 4600 
L 2519 4600 
L 2519 0 
z
" transform="scale(0.015625)"/>
      <path id="Arial-BoldMT-32" d="M 3238 816 
L 3238 0 
L 159 0 
Q 209 463 459 877 
Q 709 1291 1447 1975 
Q 2041 2528 2175 2725 
Q 2356 2997 2356 3263 
Q 2356 3556 2198 3714 
Q 2041 3872 1763 3872 
Q 1488 3872 1325 3706 
Q 1163 3541 1138 3156 
L 263 3244 
Q 341 3969 753 4284 
Q 1166 4600 1784 4600 
Q 2463 4600 2850 4234 
Q 3238 3869 3238 3325 
Q 3238 3016 3127 2736 
Q 3016 2456 2775 2150 
Q 2616 1947 2200 1565 
Q 1784 1184 1673 1059 
Q 1563 934 1494 816 
L 3238 816 
z
" transform="scale(0.015625)"/>
      <path id="Arial-BoldMT-29" d="M 216 -1347 
Q 475 -791 581 -494 
Q 688 -197 778 190 
Q 869 578 912 926 
Q 956 1275 956 1641 
Q 956 2384 797 3048 
Q 638 3713 209 4659 
L 806 4659 
Q 1278 3988 1539 3234 
Q 1800 2481 1800 1706 
Q 1800 1053 1594 306 
Q 1359 -531 822 -1347 
L 216 -1347 
z
" transform="scale(0.015625)"/>
     </defs>
     <use xlink:href="#Arial-BoldMT-28"/>
     <use xlink:href="#Arial-BoldMT-31" transform="translate(33.300781 0)"/>
     <use xlink:href="#Arial-BoldMT-32" transform="translate(88.916016 0)"/>
     <use xlink:href="#Arial-BoldMT-20" transform="translate(144.53125 0)"/>
     <use xlink:href="#Arial-BoldMT-46" transform="translate(172.314453 0)"/>
     <use xlink:href="#Arial-BoldMT-65" transform="translate(233.398438 0)"/>
     <use xlink:href="#Arial-BoldMT-61" transform="translate(289.013672 0)"/>
     <use xlink:href="#Arial-BoldMT-74" transform="translate(344.628906 0)"/>
     <use xlink:href="#Arial-BoldMT-75" transform="translate(377.929688 0)"/>
     <use xlink:href="#Arial-BoldMT-72" transform="translate(439.013672 0)"/>
     <use xlink:href="#Arial-BoldMT-65" transform="translate(477.929688 0)"/>
     <use xlink:href="#Arial-BoldMT-73" transform="translate(533.544922 0)"/>
     <use xlink:href="#Arial-BoldMT-29" transform="translate(589.160156 0)"/>
    </g>
   </g>
   <g id="text_6">
    <!-- Model/Metadata -->
    <g style="fill: #0f172a" transform="translate(464.488594 349.822828) scale(0.09 -0.09)">
     <defs>
      <path id="Arial-BoldMT-2f" d="M -9 -78 
L 1125 4659 
L 1784 4659 
L 638 -78 
L -9 -78 
z
" transform="scale(0.015625)"/>
     </defs>
     <use xlink:href="#Arial-BoldMT-4d"/>
     <use xlink:href="#Arial-BoldMT-6f" transform="translate(83.300781 0)"/>
     <use xlink:href="#Arial-BoldMT-64" transform="translate(144.384766 0)"/>
     <use xlink:href="#Arial-BoldMT-65" transform="translate(205.46875 0)"/>
     <use xlink:href="#Arial-BoldMT-6c" transform="translate(261.083984 0)"/>
     <use xlink:href="#Arial-BoldMT-2f" transform="translate(288.867188 0)"/>
     <use xlink:href="#Arial-BoldMT-4d" transform="translate(316.650391 0)"/>
     <use xlink:href="#Arial-BoldMT-65" transform="translate(399.951172 0)"/>
     <use xlink:href="#Arial-BoldMT-74" transform="translate(455.566406 0)"/>
     <use xlink:href="#Arial-BoldMT-61" transform="translate(488.867188 0)"/>
     <use xlink:href="#Arial-BoldMT-64" transform="translate(544.482422 0)"/>
     <use xlink:href="#Arial-BoldMT-61" transform="translate(605.566406 0)"/>
     <use xlink:href="#Arial-BoldMT-74" transform="translate(661.181641 0)"/>
     <use xlink:href="#Arial-BoldMT-61" transform="translate(694.482422 0)"/>
    </g>
    <!-- Storage -->
    <g style="fill: #0f172a" transform="translate(481.486641 359.460984) scale(0.09 -0.09)">
     <use xlink:href="#Arial-BoldMT-53"/>
     <use xlink:href="#Arial-BoldMT-74" transform="translate(66.699219 0)"/>
     <use xlink:href="#Arial-BoldMT-6f" transform="translate(100 0)"/>
     <use xlink:href="#Arial-BoldMT-72" transform="translate(161.083984 0)"/>
     <use xlink:href="#Arial-BoldMT-61" transform="translate(200 0)"/>
     <use xlink:href="#Arial-BoldMT-67" transform="translate(255.615234 0)"/>
     <use xlink:href="#Arial-BoldMT-65" transform="translate(316.699219 0)"/>
    </g>
   </g>
  </g>
 </g>
 <defs>
  <clipPath id="p364b6ad829">
   <rect x="7.2" y="7.2" width="982.08" height="406.08"/>
  </clipPath>
 </defs>
</svg>
